<svg width="150" height="127" viewBox="0 0 150 127" fill="none" xmlns="http://www.w3.org/2000/svg">
<path d="M69.6134 46.6418C67.4502 45.8665 65.0923 44.9076 62.7343 43.7548C50.7394 38.7458 35.9867 32.3799 23.6022 32.3799C16.5181 32.3799 10.8179 34.5019 6.89139 38.3581C2.17545 42.9794 -0.192773 49.9166 0.0122677 59.1694C0.207057 93.0898 70.8027 126.041 98.3397 127H98.5344C100.308 127 101.877 126.225 103.056 125.072C108.951 118.91 160.477 63.4031 148.083 23.5147C141.983 4.05005 131.167 0 123.109 0C102.071 0.193831 77.2922 29.4827 69.6237 46.6316L69.6134 46.6418Z" fill="#E02049"/>
</svg>
